ply
format ascii 1.0
comment 3ds Max Wavefront OBJ Exporter v0.97b - (c)2007 guruware 
comment File Created: 28.12.2012 12:56:13 
comment 
comment object Teapot001 
comment 
comment 529 vertices 
comment 530 vertex normals 
comment 287 texture coords 
comment 1024 faces 
comment converted from OBJ by obj2ply
element vertex 529
property float32 x
property float32 y
property float32 z
element face 1024
property list uint8 int32 vertex_indices
end_header
7.3737 34.692 -21.5193 
5.8054 34.692 -13.5763 
5.5449 35.7592 -13.6871 
7.0914 35.7592 -21.5193 
5.847 36.1149 -13.5585 
7.4189 36.1149 -21.5193 
6.4617 35.7592 -13.297 
8.0852 35.7592 -21.5193 
7.1388 34.692 -13.0089 
8.8192 34.692 -21.5193 
1.505 34.692 -7.151 
1.3045 35.7592 -7.3515 
1.5371 36.1149 -7.119 
2.0101 35.7592 -6.6459 
2.5313 34.692 -6.1247 
-4.9202 34.692 -2.8507 
-5.0311 35.7592 -3.1111 
-4.9025 36.1149 -2.809 
-4.641 35.7592 -2.1943 
-4.3529 34.692 -1.5172 
-12.8633 34.692 -1.2823 
-12.8633 35.7592 -1.5646 
-12.8633 36.1149 -1.2371 
-12.8633 35.7592 -0.5708 
-12.8633 34.692 0.1632 
-21.3551 34.692 -2.8507 
-20.927 35.7592 -3.1111 
-20.8926 36.1149 -2.809 
-21.0941 35.7592 -2.1943 
-21.3736 34.692 -1.5172 
-27.7194 34.692 -7.151 
-27.2369 35.7592 -7.3515 
-27.3246 36.1149 -7.119 
-27.7443 35.7592 -6.6459 
-28.2578 34.692 -6.1247 
-31.7148 34.692 -13.5763 
-31.3486 35.7592 -13.6871 
-31.5964 36.1149 -13.5585 
-32.1911 35.7592 -13.297 
-32.8654 34.692 -13.0089 
-33.1003 34.692 -21.5193 
-32.8179 35.7592 -21.5193 
-33.1454 36.1149 -21.5193 
-33.8117 35.7592 -21.5193 
-34.5457 34.692 -21.5193 
-31.5319 34.692 -29.4623 
-31.2714 35.7592 -29.3515 
-31.5736 36.1149 -29.48 
-32.1882 35.7592 -29.7416 
-32.8654 34.692 -30.0297 
-27.2315 34.692 -35.8875 
-27.0311 35.7592 -35.6871 
-27.2636 36.1149 -35.9196 
-27.7367 35.7592 -36.3927 
-28.2578 34.692 -36.9139 
-20.8063 34.692 -40.1879 
-20.6955 35.7592 -39.9275 
-20.824 36.1149 -40.2296 
-21.0855 35.7592 -40.8442 
-21.3736 34.692 -41.5214 
-12.8633 34.692 -41.7563 
-12.8633 35.7592 -41.4739 
-12.8633 36.1149 -41.8014 
-12.8633 35.7592 -42.4677 
-12.8633 34.692 -43.2018 
-4.9202 34.692 -40.1879 
-5.0311 35.7592 -39.9275 
-4.9025 36.1149 -40.2296 
-4.641 35.7592 -40.8442 
-4.3529 34.692 -41.5214 
1.505 34.692 -35.8875 
1.3045 35.7592 -35.6871 
1.5371 36.1149 -35.9196 
2.0101 35.7592 -36.3927 
2.5313 34.692 -36.9139 
5.8054 34.692 -29.4623 
5.5449 35.7592 -29.3515 
5.847 36.1149 -29.48 
6.4617 35.7592 -29.7416 
7.1388 34.692 -30.0297 
9.587 29.0173 -11.9673 
11.4731 29.0173 -21.5193 
11.7226 23.4442 -11.0586 
13.7881 23.4442 -21.5193 
13.2332 18.0744 -10.4159 
15.4256 18.0744 -21.5193 
13.8062 13.0095 -10.1721 
16.0467 13.0095 -21.5193 
4.4155 29.0173 -4.2405 
6.0592 23.4442 -2.5968 
7.2218 18.0744 -1.4342 
7.6628 13.0095 -0.9932 
-3.3113 29.0173 0.931 
-2.4026 23.4442 3.0666 
-1.7599 18.0744 4.5772 
-1.5161 13.0095 5.1502 
-12.8633 29.0173 2.817 
-12.8633 23.4442 5.1321 
-12.8633 18.0744 6.7696 
-12.8633 13.0095 7.3907 
-22.4153 29.0173 0.931 
-23.3239 23.4442 3.0666 
-23.9666 18.0744 4.5772 
-24.2104 13.0095 5.1502 
-30.1421 29.0173 -4.2405 
-31.7858 23.4442 -2.5968 
-32.9484 18.0744 -1.4342 
-33.3894 13.0095 -0.9932 
-35.3135 29.0173 -11.9673 
-37.4492 23.4442 -11.0586 
-38.9597 18.0744 -10.4159 
-39.5327 13.0095 -10.1721 
-37.1996 29.0173 -21.5193 
-39.5147 23.4442 -21.5193 
-41.1521 18.0744 -21.5193 
-41.7732 13.0095 -21.5193 
-35.3135 29.0173 -31.0713 
-37.4492 23.4442 -31.98 
-38.9597 18.0744 -32.6227 
-39.5327 13.0095 -32.8665 
-30.1421 29.0173 -38.7981 
-31.7858 23.4442 -40.4418 
-32.9484 18.0744 -41.6044 
-33.3894 13.0095 -42.0454 
-22.4153 29.0173 -43.9696 
-23.3239 23.4442 -46.1052 
-23.9666 18.0744 -47.6158 
-24.2104 13.0095 -48.1887 
-12.8633 29.0173 -45.8556 
-12.8633 23.4442 -48.1707 
-12.8633 18.0744 -49.8082 
-12.8633 13.0095 -50.4293 
-3.3113 29.0173 -43.9696 
-2.4026 23.4442 -46.1052 
-1.7599 18.0744 -47.6158 
-1.5161 13.0095 -48.1887 
4.4155 29.0173 -38.7981 
6.0592 23.4442 -40.4418 
7.2218 18.0744 -41.6044 
7.6628 13.0095 -42.0454 
9.587 29.0173 -31.0713 
11.7226 23.4442 -31.98 
13.2332 18.0744 -32.6227 
13.8062 13.0095 -32.8665 
12.7644 8.7238 -10.6154 
14.9174 8.7238 -21.5193 
10.4725 5.5561 -11.5905 
12.433 5.5561 -21.5193 
8.1806 3.4048 -12.5657 
9.9485 3.4048 -21.5193 
7.1388 2.1682 -13.0089 
8.8192 2.1682 -21.5193 
6.861 8.7238 -1.795 
5.0971 5.5561 -3.559 
3.3331 3.4048 -5.3229 
2.5313 2.1682 -6.1247 
-1.9593 8.7238 4.1084 
-2.9345 5.5561 1.8165 
-3.9096 3.4048 -0.4754 
-4.3529 2.1682 -1.5172 
-12.8633 8.7238 6.2614 
-12.8633 5.5561 3.7769 
-12.8633 3.4048 1.2925 
-12.8633 2.1682 0.1632 
-23.7672 8.7238 4.1084 
-22.792 5.5561 1.8165 
-21.8169 3.4048 -0.4754 
-21.3736 2.1682 -1.5172 
-32.5876 8.7238 -1.795 
-30.8236 5.5561 -3.559 
-29.0596 3.4048 -5.3229 
-28.2578 2.1682 -6.1247 
-38.4909 8.7238 -10.6154 
-36.199 5.5561 -11.5905 
-33.9071 3.4048 -12.5657 
-32.8654 2.1682 -13.0089 
-40.644 8.7238 -21.5193 
-38.1595 5.5561 -21.5193 
-35.675 3.4048 -21.5193 
-34.5457 2.1682 -21.5193 
-38.4909 8.7238 -32.4232 
-36.199 5.5561 -31.4481 
-33.9071 3.4048 -30.4729 
-32.8654 2.1682 -30.0297 
-32.5876 8.7238 -41.2436 
-30.8236 5.5561 -39.4796 
-29.0596 3.4048 -37.7157 
-28.2578 2.1682 -36.9139 
-23.7672 8.7238 -47.147 
-22.792 5.5561 -44.8551 
-21.8169 3.4048 -42.5632 
-21.3736 2.1682 -41.5214 
-12.8633 8.7238 -49.3 
-12.8633 5.5561 -46.8155 
-12.8633 3.4048 -44.3311 
-12.8633 2.1682 -43.2018 
-1.9593 8.7238 -47.147 
-2.9345 5.5561 -44.8551 
-3.9096 3.4048 -42.5632 
-4.3529 2.1682 -41.5214 
6.861 8.7238 -41.2436 
5.0971 5.5561 -39.4796 
3.3331 3.4048 -37.7157 
2.5313 2.1682 -36.9139 
12.7644 8.7238 -32.4232 
10.4725 5.5561 -31.4481 
8.1806 3.4048 -30.4729 
7.1388 2.1682 -30.0297 
6.6857 1.3721 -13.2017 
8.328 1.3721 -21.5193 
4.2635 0.6776 -14.2323 
5.7024 0.6776 -21.5193 
-1.7215 0.1863 -16.7787 
-0.7854 0.1863 -21.5193 
-12.8633 0 -21.5193 
2.1825 1.3721 -6.4735 
0.3183 0.6776 -8.3377 
-4.288 0.1863 -12.944 
-4.5457 1.3721 -1.9704 
-5.5763 0.6776 -4.3925 
-8.1227 0.1863 -10.3775 
-12.8633 1.3721 -0.328 
-12.8633 0.6776 -2.9537 
-12.8633 0.1863 -9.4415 
-21.1808 1.3721 -1.9704 
-20.1503 0.6776 -4.3925 
-17.6038 0.1863 -10.3775 
-27.909 1.3721 -6.4735 
-26.0449 0.6776 -8.3377 
-21.4385 0.1863 -12.944 
-32.4122 1.3721 -13.2017 
-29.9901 0.6776 -14.2323 
-24.0051 0.1863 -16.7787 
-34.0545 1.3721 -21.5193 
-31.4289 0.6776 -21.5193 
-24.9411 0.1863 -21.5193 
-32.4122 1.3721 -29.8368 
-29.9901 0.6776 -28.8063 
-24.0051 0.1863 -26.2598 
-27.909 1.3721 -36.5651 
-26.0449 0.6776 -34.7009 
-21.4385 0.1863 -30.0945 
-21.1808 1.3721 -41.0682 
-20.1503 0.6776 -38.6461 
-17.6038 0.1863 -32.6611 
-12.8633 1.3721 -42.7105 
-12.8633 0.6776 -40.0849 
-12.8633 0.1863 -33.5971 
-4.5457 1.3721 -41.0682 
-5.5763 0.6776 -38.6461 
-8.1227 0.1863 -32.6611 
2.1825 1.3721 -36.5651 
0.3183 0.6776 -34.7009 
-4.288 0.1863 -30.0945 
6.6857 1.3721 -29.8368 
4.2635 0.6776 -28.8063 
-1.7215 0.1863 -26.2598 
-35.9912 29.2714 -21.5193 
-35.7654 29.7795 -19.08 
-42.9456 29.7208 -19.08 
-42.7444 29.2205 -21.5193 
-48.2159 29.3095 -19.08 
-47.7359 28.8648 -21.5193 
-51.4619 28.1931 -19.08 
-50.8302 27.8993 -21.5193 
-52.5693 26.019 -19.08 
-51.8917 26.019 -21.5193 
-35.2685 30.8975 -18.2669 
-43.3881 30.8213 -18.2669 
-49.2718 30.2877 -18.2669 
-52.8516 28.8394 -18.2669 
-54.06 26.019 -18.2669 
-34.7716 32.0155 -19.08 
-43.8307 31.9218 -19.08 
-50.3277 31.266 -19.08 
-54.2414 29.4857 -19.08 
-55.5507 26.019 -19.08 
-34.5457 32.5237 -21.5193 
-44.0318 32.4221 -21.5193 
-50.8076 31.7106 -21.5193 
-54.8731 29.7795 -21.5193 
-56.2282 26.019 -21.5193 
-34.7716 32.0155 -23.9586 
-43.8307 31.9218 -23.9586 
-50.3277 31.266 -23.9586 
-54.2414 29.4857 -23.9586 
-55.5507 26.019 -23.9586 
-35.2685 30.8975 -24.7717 
-43.3881 30.8213 -24.7717 
-49.2718 30.2877 -24.7717 
-52.8516 28.8394 -24.7717 
-54.06 26.019 -24.7717 
-35.7654 29.7795 -23.9586 
-42.9456 29.7208 -23.9586 
-48.2159 29.3095 -23.9586 
-51.4619 28.1931 -23.9586 
-52.5693 26.019 -23.9586 
-51.9429 22.787 -19.08 
-51.3271 23.0715 -21.5193 
-49.9804 19.0802 -19.08 
-49.5428 19.5142 -21.5193 
-46.5569 15.421 -19.08 
-46.4034 15.957 -21.5193 
-41.5474 12.3319 -19.08 
-53.2977 22.161 -18.2669 
-50.9431 18.1252 -18.2669 
-46.8946 14.2418 -18.2669 
-41.0505 10.8412 -18.2669 
-54.6525 21.5351 -19.08 
-51.9059 17.1702 -19.08 
-47.2323 13.0627 -19.08 
-40.5536 9.3506 -19.08 
-55.2683 21.2505 -21.5193 
-52.3435 16.7362 -21.5193 
-47.3858 12.5267 -21.5193 
-40.3277 8.673 -21.5193 
-54.6525 21.5351 -23.9586 
-51.9058 17.1702 -23.9586 
-47.2323 13.0627 -23.9586 
-40.5536 9.3506 -23.9586 
-53.2977 22.161 -24.7717 
-50.9431 18.1252 -24.7717 
-46.8946 14.2418 -24.7717 
-41.0505 10.8412 -24.7717 
-51.9429 22.787 -23.9586 
-49.9804 19.0802 -23.9586 
-46.5569 15.421 -23.9586 
-41.5474 12.3319 -23.9586 
11.7102 20.5984 -21.5193 
11.7102 18.735 -16.1529 
19.1734 20.809 -16.6738 
18.6441 22.1907 -21.5193 
22.3256 25.2144 -17.8197 
21.648 26.019 -21.5193 
24.1226 30.3692 -18.9657 
23.2968 30.6604 -21.5193 
27.5204 34.692 -19.4866 
26.1652 34.692 -21.5193 
11.7102 14.6357 -14.3641 
20.338 17.7695 -15.0586 
23.8163 23.4442 -16.5865 
25.9393 29.7287 -18.1145 
30.5017 34.692 -18.809 
11.7102 10.5363 -16.1529 
21.5026 14.7299 -16.6738 
25.3069 21.674 -17.8197 
27.7561 29.0882 -18.9657 
33.483 34.692 -19.4866 
11.7102 8.673 -21.5193 
22.032 13.3483 -21.5193 
25.9845 20.8694 -21.5193 
28.5819 28.7971 -21.5193 
34.8382 34.692 -21.5193 
11.7102 10.5363 -26.8857 
21.5026 14.7299 -26.3648 
25.3069 21.674 -25.2189 
27.7561 29.0882 -24.0729 
33.483 34.692 -23.552 
11.7102 14.6357 -28.6745 
20.338 17.7695 -27.98 
23.8163 23.4442 -26.4521 
25.9393 29.7287 -24.9241 
30.5017 34.692 -24.2296 
11.7102 18.735 -26.8857 
19.1734 20.809 -26.3648 
22.3256 25.2144 -25.2189 
24.1226 30.3692 -24.0729 
27.5204 34.692 -23.552 
28.6555 35.3316 -19.6136 
27.2042 35.3018 -21.5193 
29.3343 35.5527 -19.8931 
27.9721 35.5051 -21.5193 
29.3546 35.3435 -20.1726 
28.1979 35.3018 -21.5193 
28.5141 34.692 -20.2996 
27.6107 34.692 -21.5193 
31.8484 35.3971 -18.9784 
32.3312 35.6575 -19.351 
31.8992 35.4352 -19.7237 
30.5017 34.692 -19.8931 
35.0413 35.4626 -19.6136 
35.328 35.7623 -19.8931 
34.4438 35.5269 -20.1726 
32.4893 34.692 -20.2996 
36.4926 35.4924 -21.5193 
36.6903 35.81 -21.5193 
35.6005 35.5686 -21.5193 
33.3927 34.692 -21.5193 
35.0413 35.4626 -23.425 
35.328 35.7623 -23.1455 
34.4438 35.5269 -22.866 
32.4893 34.692 -22.7389 
31.8484 35.3971 -24.0602 
32.3312 35.6575 -23.6875 
31.8992 35.4352 -23.3149 
30.5017 34.692 -23.1455 
28.6555 35.3316 -23.425 
29.3343 35.5527 -23.1455 
29.3546 35.3435 -22.866 
28.5141 34.692 -22.7389 
-12.8633 45.5332 -21.5193 
-8.3194 44.8218 -19.5816 
-7.9395 44.8218 -21.5193 
-8.528 43.0939 -19.6708 
-8.1654 43.0939 -21.5193 
-10.2374 40.9596 -20.4006 
-10.0174 40.9596 -21.5193 
-10.1963 39.0285 -20.3846 
-9.9723 39.0285 -21.5193 
-9.3628 44.8218 -18.0189 
-9.5237 43.0939 -18.1797 
-10.8412 40.9596 -19.4972 
-10.8107 39.0285 -19.4667 
-10.9256 44.8218 -16.9754 
-11.0148 43.0939 -17.184 
-11.7446 40.9596 -18.8934 
-11.7285 39.0285 -18.8523 
-12.8633 44.8218 -16.5956 
-12.8633 43.0939 -16.8214 
-12.8633 40.9596 -18.6735 
-12.8633 39.0285 -18.6283 
-14.801 44.8218 -16.9754 
-14.7118 43.0939 -17.184 
-13.982 40.9596 -18.8934 
-13.998 39.0285 -18.8523 
-16.3637 44.8218 -18.0189 
-16.2028 43.0939 -18.1797 
-14.8853 40.9596 -19.4972 
-14.9159 39.0285 -19.4667 
-17.4071 44.8218 -19.5816 
-17.1986 43.0939 -19.6708 
-15.4891 40.9596 -20.4006 
-15.5302 39.0285 -20.3846 
-17.787 44.8218 -21.5193 
-17.5611 43.0939 -21.5193 
-15.7091 40.9596 -21.5193 
-15.7543 39.0285 -21.5193 
-17.4071 44.8218 -23.457 
-17.1986 43.0939 -23.3678 
-15.4891 40.9596 -22.638 
-15.5302 39.0285 -22.654 
-16.3637 44.8218 -25.0197 
-16.2028 43.0939 -24.8588 
-14.8853 40.9596 -23.5413 
-14.9159 39.0285 -23.5719 
-14.801 44.8218 -26.0631 
-14.7118 43.0939 -25.8546 
-13.982 40.9596 -24.1451 
-13.998 39.0285 -24.1862 
-12.8633 44.8218 -26.443 
-12.8633 43.0939 -26.2172 
-12.8633 40.9596 -24.3651 
-12.8633 39.0285 -24.4103 
-10.9256 44.8218 -26.0631 
-11.0148 43.0939 -25.8546 
-11.7446 40.9596 -24.1451 
-11.7285 39.0285 -24.1862 
-9.3628 44.8218 -25.0197 
-9.5237 43.0939 -24.8588 
-10.8412 40.9596 -23.5413 
-10.8107 39.0285 -23.5719 
-8.3194 44.8218 -23.457 
-8.528 43.0939 -23.3678 
-10.2374 40.9596 -22.638 
-10.1963 39.0285 -22.654 
-6.7793 37.7411 -18.9307 
-6.2682 37.7411 -21.5193 
-1.8621 36.8602 -16.8386 
-0.9379 36.8602 -21.5193 
2.555 35.9794 -14.9592 
3.8503 35.9794 -21.5193 
4.4719 34.692 -14.1436 
5.9282 34.692 -21.5193 
-8.1808 37.7411 -16.8368 
-4.3963 36.8602 -13.0523 
-0.9966 35.9794 -9.6526 
0.4787 34.692 -8.1773 
-10.2747 37.7411 -15.4353 
-8.1826 36.8602 -10.5181 
-6.3032 35.9794 -6.101 
-5.4876 34.692 -4.1841 
-12.8633 37.7411 -14.9242 
-12.8633 36.8602 -9.5939 
-12.8633 35.9794 -4.8057 
-12.8633 34.692 -2.7278 
-15.4518 37.7411 -15.4353 
-17.544 36.8602 -10.5181 
-19.4233 35.9794 -6.101 
-20.2389 34.692 -4.1841 
-17.5458 37.7411 -16.8368 
-21.3303 36.8602 -13.0523 
-24.7299 35.9794 -9.6526 
-26.2052 34.692 -8.1773 
-18.9472 37.7411 -18.9307 
-23.8644 36.8602 -16.8386 
-28.2815 35.9794 -14.9592 
-30.1984 34.692 -14.1436 
-19.4584 37.7411 -21.5193 
-24.7886 36.8602 -21.5193 
-29.5768 35.9794 -21.5193 
-31.6548 34.692 -21.5193 
-18.9472 37.7411 -24.1079 
-23.8644 36.8602 -26.2 
-28.2815 35.9794 -28.0794 
-30.1984 34.692 -28.8949 
-17.5458 37.7411 -26.2018 
-21.3303 36.8602 -29.9863 
-24.7299 35.9794 -33.3859 
-26.2052 34.692 -34.8612 
-15.4518 37.7411 -27.6033 
-17.544 36.8602 -32.5204 
-19.4233 35.9794 -36.9376 
-20.2389 34.692 -38.8544 
-12.8633 37.7411 -28.1144 
-12.8633 36.8602 -33.4447 
-12.8633 35.9794 -38.2329 
-12.8633 34.692 -40.3108 
-10.2747 37.7411 -27.6033 
-8.1826 36.8602 -32.5204 
-6.3032 35.9794 -36.9376 
-5.4876 34.692 -38.8544 
-8.1808 37.7411 -26.2018 
-4.3963 36.8602 -29.9863 
-0.9966 35.9794 -33.3859 
0.4787 34.692 -34.8612 
-6.7793 37.7411 -24.1079 
-1.8621 36.8602 -26.2 
2.555 35.9794 -28.0794 
4.4719 34.692 -28.8949 
3 2 1 0 
3 0 3 2 
3 4 2 3 
3 3 5 4 
3 6 4 5 
3 5 7 6 
3 8 6 7 
3 7 9 8 
3 11 10 1 
3 1 2 11 
3 12 11 2 
3 2 4 12 
3 13 12 4 
3 4 6 13 
3 14 13 6 
3 6 8 14 
3 16 15 10 
3 10 11 16 
3 17 16 11 
3 11 12 17 
3 18 17 12 
3 12 13 18 
3 19 18 13 
3 13 14 19 
3 21 20 15 
3 15 16 21 
3 22 21 16 
3 16 17 22 
3 23 22 17 
3 17 18 23 
3 24 23 18 
3 18 19 24 
3 26 25 20 
3 20 21 26 
3 27 26 21 
3 21 22 27 
3 28 27 22 
3 22 23 28 
3 29 28 23 
3 23 24 29 
3 31 30 25 
3 25 26 31 
3 32 31 26 
3 26 27 32 
3 33 32 27 
3 27 28 33 
3 34 33 28 
3 28 29 34 
3 36 35 30 
3 30 31 36 
3 37 36 31 
3 31 32 37 
3 38 37 32 
3 32 33 38 
3 39 38 33 
3 33 34 39 
3 41 40 35 
3 35 36 41 
3 42 41 36 
3 36 37 42 
3 43 42 37 
3 37 38 43 
3 44 43 38 
3 38 39 44 
3 46 45 40 
3 40 41 46 
3 47 46 41 
3 41 42 47 
3 48 47 42 
3 42 43 48 
3 49 48 43 
3 43 44 49 
3 51 50 45 
3 45 46 51 
3 52 51 46 
3 46 47 52 
3 53 52 47 
3 47 48 53 
3 54 53 48 
3 48 49 54 
3 56 55 50 
3 50 51 56 
3 57 56 51 
3 51 52 57 
3 58 57 52 
3 52 53 58 
3 59 58 53 
3 53 54 59 
3 61 60 55 
3 55 56 61 
3 62 61 56 
3 56 57 62 
3 63 62 57 
3 57 58 63 
3 64 63 58 
3 58 59 64 
3 66 65 60 
3 60 61 66 
3 67 66 61 
3 61 62 67 
3 68 67 62 
3 62 63 68 
3 69 68 63 
3 63 64 69 
3 71 70 65 
3 65 66 71 
3 72 71 66 
3 66 67 72 
3 73 72 67 
3 67 68 73 
3 74 73 68 
3 68 69 74 
3 76 75 70 
3 70 71 76 
3 77 76 71 
3 71 72 77 
3 78 77 72 
3 72 73 78 
3 79 78 73 
3 73 74 79 
3 3 0 75 
3 75 76 3 
3 5 3 76 
3 76 77 5 
3 7 5 77 
3 77 78 7 
3 9 7 78 
3 78 79 9 
3 80 8 9 
3 9 81 80 
3 82 80 81 
3 81 83 82 
3 84 82 83 
3 83 85 84 
3 86 84 85 
3 85 87 86 
3 88 14 8 
3 8 80 88 
3 89 88 80 
3 80 82 89 
3 90 89 82 
3 82 84 90 
3 91 90 84 
3 84 86 91 
3 92 19 14 
3 14 88 92 
3 93 92 88 
3 88 89 93 
3 94 93 89 
3 89 90 94 
3 95 94 90 
3 90 91 95 
3 96 24 19 
3 19 92 96 
3 97 96 92 
3 92 93 97 
3 98 97 93 
3 93 94 98 
3 99 98 94 
3 94 95 99 
3 100 29 24 
3 24 96 100 
3 101 100 96 
3 96 97 101 
3 102 101 97 
3 97 98 102 
3 103 102 98 
3 98 99 103 
3 104 34 29 
3 29 100 104 
3 105 104 100 
3 100 101 105 
3 106 105 101 
3 101 102 106 
3 107 106 102 
3 102 103 107 
3 108 39 34 
3 34 104 108 
3 109 108 104 
3 104 105 109 
3 110 109 105 
3 105 106 110 
3 111 110 106 
3 106 107 111 
3 112 44 39 
3 39 108 112 
3 113 112 108 
3 108 109 113 
3 114 113 109 
3 109 110 114 
3 115 114 110 
3 110 111 115 
3 116 49 44 
3 44 112 116 
3 117 116 112 
3 112 113 117 
3 118 117 113 
3 113 114 118 
3 119 118 114 
3 114 115 119 
3 120 54 49 
3 49 116 120 
3 121 120 116 
3 116 117 121 
3 122 121 117 
3 117 118 122 
3 123 122 118 
3 118 119 123 
3 124 59 54 
3 54 120 124 
3 125 124 120 
3 120 121 125 
3 126 125 121 
3 121 122 126 
3 127 126 122 
3 122 123 127 
3 128 64 59 
3 59 124 128 
3 129 128 124 
3 124 125 129 
3 130 129 125 
3 125 126 130 
3 131 130 126 
3 126 127 131 
3 132 69 64 
3 64 128 132 
3 133 132 128 
3 128 129 133 
3 134 133 129 
3 129 130 134 
3 135 134 130 
3 130 131 135 
3 136 74 69 
3 69 132 136 
3 137 136 132 
3 132 133 137 
3 138 137 133 
3 133 134 138 
3 139 138 134 
3 134 135 139 
3 140 79 74 
3 74 136 140 
3 141 140 136 
3 136 137 141 
3 142 141 137 
3 137 138 142 
3 143 142 138 
3 138 139 143 
3 81 9 79 
3 79 140 81 
3 83 81 140 
3 140 141 83 
3 85 83 141 
3 141 142 85 
3 87 85 142 
3 142 143 87 
3 144 86 87 
3 87 145 144 
3 146 144 145 
3 145 147 146 
3 148 146 147 
3 147 149 148 
3 150 148 149 
3 149 151 150 
3 152 91 86 
3 86 144 152 
3 153 152 144 
3 144 146 153 
3 154 153 146 
3 146 148 154 
3 155 154 148 
3 148 150 155 
3 156 95 91 
3 91 152 156 
3 157 156 152 
3 152 153 157 
3 158 157 153 
3 153 154 158 
3 159 158 154 
3 154 155 159 
3 160 99 95 
3 95 156 160 
3 161 160 156 
3 156 157 161 
3 162 161 157 
3 157 158 162 
3 163 162 158 
3 158 159 163 
3 164 103 99 
3 99 160 164 
3 165 164 160 
3 160 161 165 
3 166 165 161 
3 161 162 166 
3 167 166 162 
3 162 163 167 
3 168 107 103 
3 103 164 168 
3 169 168 164 
3 164 165 169 
3 170 169 165 
3 165 166 170 
3 171 170 166 
3 166 167 171 
3 172 111 107 
3 107 168 172 
3 173 172 168 
3 168 169 173 
3 174 173 169 
3 169 170 174 
3 175 174 170 
3 170 171 175 
3 176 115 111 
3 111 172 176 
3 177 176 172 
3 172 173 177 
3 178 177 173 
3 173 174 178 
3 179 178 174 
3 174 175 179 
3 180 119 115 
3 115 176 180 
3 181 180 176 
3 176 177 181 
3 182 181 177 
3 177 178 182 
3 183 182 178 
3 178 179 183 
3 184 123 119 
3 119 180 184 
3 185 184 180 
3 180 181 185 
3 186 185 181 
3 181 182 186 
3 187 186 182 
3 182 183 187 
3 188 127 123 
3 123 184 188 
3 189 188 184 
3 184 185 189 
3 190 189 185 
3 185 186 190 
3 191 190 186 
3 186 187 191 
3 192 131 127 
3 127 188 192 
3 193 192 188 
3 188 189 193 
3 194 193 189 
3 189 190 194 
3 195 194 190 
3 190 191 195 
3 196 135 131 
3 131 192 196 
3 197 196 192 
3 192 193 197 
3 198 197 193 
3 193 194 198 
3 199 198 194 
3 194 195 199 
3 200 139 135 
3 135 196 200 
3 201 200 196 
3 196 197 201 
3 202 201 197 
3 197 198 202 
3 203 202 198 
3 198 199 203 
3 204 143 139 
3 139 200 204 
3 205 204 200 
3 200 201 205 
3 206 205 201 
3 201 202 206 
3 207 206 202 
3 202 203 207 
3 145 87 143 
3 143 204 145 
3 147 145 204 
3 204 205 147 
3 149 147 205 
3 205 206 149 
3 151 149 206 
3 206 207 151 
3 208 150 151 
3 151 209 208 
3 210 208 209 
3 209 211 210 
3 212 210 211 
3 211 213 212 
3 214 212 213 
3 213 214 214 
3 215 155 150 
3 150 208 215 
3 216 215 208 
3 208 210 216 
3 217 216 210 
3 210 212 217 
3 214 217 212 
3 212 214 214 
3 218 159 155 
3 155 215 218 
3 219 218 215 
3 215 216 219 
3 220 219 216 
3 216 217 220 
3 214 220 217 
3 217 214 214 
3 221 163 159 
3 159 218 221 
3 222 221 218 
3 218 219 222 
3 223 222 219 
3 219 220 223 
3 214 223 220 
3 220 214 214 
3 224 167 163 
3 163 221 224 
3 225 224 221 
3 221 222 225 
3 226 225 222 
3 222 223 226 
3 214 226 223 
3 223 214 214 
3 227 171 167 
3 167 224 227 
3 228 227 224 
3 224 225 228 
3 229 228 225 
3 225 226 229 
3 214 229 226 
3 226 214 214 
3 230 175 171 
3 171 227 230 
3 231 230 227 
3 227 228 231 
3 232 231 228 
3 228 229 232 
3 214 232 229 
3 229 214 214 
3 233 179 175 
3 175 230 233 
3 234 233 230 
3 230 231 234 
3 235 234 231 
3 231 232 235 
3 214 235 232 
3 232 214 214 
3 236 183 179 
3 179 233 236 
3 237 236 233 
3 233 234 237 
3 238 237 234 
3 234 235 238 
3 214 238 235 
3 235 214 214 
3 239 187 183 
3 183 236 239 
3 240 239 236 
3 236 237 240 
3 241 240 237 
3 237 238 241 
3 214 241 238 
3 238 214 214 
3 242 191 187 
3 187 239 242 
3 243 242 239 
3 239 240 243 
3 244 243 240 
3 240 241 244 
3 214 244 241 
3 241 214 214 
3 245 195 191 
3 191 242 245 
3 246 245 242 
3 242 243 246 
3 247 246 243 
3 243 244 247 
3 214 247 244 
3 244 214 214 
3 248 199 195 
3 195 245 248 
3 249 248 245 
3 245 246 249 
3 250 249 246 
3 246 247 250 
3 214 250 247 
3 247 214 214 
3 251 203 199 
3 199 248 251 
3 252 251 248 
3 248 249 252 
3 253 252 249 
3 249 250 253 
3 214 253 250 
3 250 214 214 
3 254 207 203 
3 203 251 254 
3 255 254 251 
3 251 252 255 
3 256 255 252 
3 252 253 256 
3 214 256 253 
3 253 214 214 
3 209 151 207 
3 207 254 209 
3 211 209 254 
3 254 255 211 
3 213 211 255 
3 255 256 213 
3 214 213 256 
3 256 214 214 
3 259 258 257 
3 257 260 259 
3 261 259 260 
3 260 262 261 
3 263 261 262 
3 262 264 263 
3 265 263 264 
3 264 266 265 
3 268 267 258 
3 258 259 268 
3 269 268 259 
3 259 261 269 
3 270 269 261 
3 261 263 270 
3 271 270 263 
3 263 265 271 
3 273 272 267 
3 267 268 273 
3 274 273 268 
3 268 269 274 
3 275 274 269 
3 269 270 275 
3 276 275 270 
3 270 271 276 
3 278 277 272 
3 272 273 278 
3 279 278 273 
3 273 274 279 
3 280 279 274 
3 274 275 280 
3 281 280 275 
3 275 276 281 
3 283 282 277 
3 277 278 283 
3 284 283 278 
3 278 279 284 
3 285 284 279 
3 279 280 285 
3 286 285 280 
3 280 281 286 
3 288 287 282 
3 282 283 288 
3 289 288 283 
3 283 284 289 
3 290 289 284 
3 284 285 290 
3 291 290 285 
3 285 286 291 
3 293 292 287 
3 287 288 293 
3 294 293 288 
3 288 289 294 
3 295 294 289 
3 289 290 295 
3 296 295 290 
3 290 291 296 
3 260 257 292 
3 292 293 260 
3 262 260 293 
3 293 294 262 
3 264 262 294 
3 294 295 264 
3 266 264 295 
3 295 296 266 
3 297 265 266 
3 266 298 297 
3 299 297 298 
3 298 300 299 
3 301 299 300 
3 300 302 301 
3 303 301 302 
3 302 115 303 
3 304 271 265 
3 265 297 304 
3 305 304 297 
3 297 299 305 
3 306 305 299 
3 299 301 306 
3 307 306 301 
3 301 303 307 
3 308 276 271 
3 271 304 308 
3 309 308 304 
3 304 305 309 
3 310 309 305 
3 305 306 310 
3 311 310 306 
3 306 307 311 
3 312 281 276 
3 276 308 312 
3 313 312 308 
3 308 309 313 
3 314 313 309 
3 309 310 314 
3 315 314 310 
3 310 311 315 
3 316 286 281 
3 281 312 316 
3 317 316 312 
3 312 313 317 
3 318 317 313 
3 313 314 318 
3 319 318 314 
3 314 315 319 
3 320 291 286 
3 286 316 320 
3 321 320 316 
3 316 317 321 
3 322 321 317 
3 317 318 322 
3 323 322 318 
3 318 319 323 
3 324 296 291 
3 291 320 324 
3 325 324 320 
3 320 321 325 
3 326 325 321 
3 321 322 326 
3 327 326 322 
3 322 323 327 
3 298 266 296 
3 296 324 298 
3 300 298 324 
3 324 325 300 
3 302 300 325 
3 325 326 302 
3 115 302 326 
3 326 327 115 
3 330 329 328 
3 328 331 330 
3 332 330 331 
3 331 333 332 
3 334 332 333 
3 333 335 334 
3 336 334 335 
3 335 337 336 
3 339 338 329 
3 329 330 339 
3 340 339 330 
3 330 332 340 
3 341 340 332 
3 332 334 341 
3 342 341 334 
3 334 336 342 
3 344 343 338 
3 338 339 344 
3 345 344 339 
3 339 340 345 
3 346 345 340 
3 340 341 346 
3 347 346 341 
3 341 342 347 
3 349 348 343 
3 343 344 349 
3 350 349 344 
3 344 345 350 
3 351 350 345 
3 345 346 351 
3 352 351 346 
3 346 347 352 
3 354 353 348 
3 348 349 354 
3 355 354 349 
3 349 350 355 
3 356 355 350 
3 350 351 356 
3 357 356 351 
3 351 352 357 
3 359 358 353 
3 353 354 359 
3 360 359 354 
3 354 355 360 
3 361 360 355 
3 355 356 361 
3 362 361 356 
3 356 357 362 
3 364 363 358 
3 358 359 364 
3 365 364 359 
3 359 360 365 
3 366 365 360 
3 360 361 366 
3 367 366 361 
3 361 362 367 
3 331 328 363 
3 363 364 331 
3 333 331 364 
3 364 365 333 
3 335 333 365 
3 365 366 335 
3 337 335 366 
3 366 367 337 
3 368 336 337 
3 337 369 368 
3 370 368 369 
3 369 371 370 
3 372 370 371 
3 371 373 372 
3 374 372 373 
3 373 375 374 
3 376 342 336 
3 336 368 376 
3 377 376 368 
3 368 370 377 
3 378 377 370 
3 370 372 378 
3 379 378 372 
3 372 374 379 
3 380 347 342 
3 342 376 380 
3 381 380 376 
3 376 377 381 
3 382 381 377 
3 377 378 382 
3 383 382 378 
3 378 379 383 
3 384 352 347 
3 347 380 384 
3 385 384 380 
3 380 381 385 
3 386 385 381 
3 381 382 386 
3 387 386 382 
3 382 383 387 
3 388 357 352 
3 352 384 388 
3 389 388 384 
3 384 385 389 
3 390 389 385 
3 385 386 390 
3 391 390 386 
3 386 387 391 
3 392 362 357 
3 357 388 392 
3 393 392 388 
3 388 389 393 
3 394 393 389 
3 389 390 394 
3 395 394 390 
3 390 391 395 
3 396 367 362 
3 362 392 396 
3 397 396 392 
3 392 393 397 
3 398 397 393 
3 393 394 398 
3 399 398 394 
3 394 395 399 
3 369 337 367 
3 367 396 369 
3 371 369 396 
3 396 397 371 
3 373 371 397 
3 397 398 373 
3 375 373 398 
3 398 399 375 
3 401 400 400 
3 400 402 401 
3 403 401 402 
3 402 404 403 
3 405 403 404 
3 404 406 405 
3 407 405 406 
3 406 408 407 
3 409 400 400 
3 400 401 409 
3 410 409 401 
3 401 403 410 
3 411 410 403 
3 403 405 411 
3 412 411 405 
3 405 407 412 
3 413 400 400 
3 400 409 413 
3 414 413 409 
3 409 410 414 
3 415 414 410 
3 410 411 415 
3 416 415 411 
3 411 412 416 
3 417 400 400 
3 400 413 417 
3 418 417 413 
3 413 414 418 
3 419 418 414 
3 414 415 419 
3 420 419 415 
3 415 416 420 
3 421 400 400 
3 400 417 421 
3 422 421 417 
3 417 418 422 
3 423 422 418 
3 418 419 423 
3 424 423 419 
3 419 420 424 
3 425 400 400 
3 400 421 425 
3 426 425 421 
3 421 422 426 
3 427 426 422 
3 422 423 427 
3 428 427 423 
3 423 424 428 
3 429 400 400 
3 400 425 429 
3 430 429 425 
3 425 426 430 
3 431 430 426 
3 426 427 431 
3 432 431 427 
3 427 428 432 
3 433 400 400 
3 400 429 433 
3 434 433 429 
3 429 430 434 
3 435 434 430 
3 430 431 435 
3 436 435 431 
3 431 432 436 
3 437 400 400 
3 400 433 437 
3 438 437 433 
3 433 434 438 
3 439 438 434 
3 434 435 439 
3 440 439 435 
3 435 436 440 
3 441 400 400 
3 400 437 441 
3 442 441 437 
3 437 438 442 
3 443 442 438 
3 438 439 443 
3 444 443 439 
3 439 440 444 
3 445 400 400 
3 400 441 445 
3 446 445 441 
3 441 442 446 
3 447 446 442 
3 442 443 447 
3 448 447 443 
3 443 444 448 
3 449 400 400 
3 400 445 449 
3 450 449 445 
3 445 446 450 
3 451 450 446 
3 446 447 451 
3 452 451 447 
3 447 448 452 
3 453 400 400 
3 400 449 453 
3 454 453 449 
3 449 450 454 
3 455 454 450 
3 450 451 455 
3 456 455 451 
3 451 452 456 
3 457 400 400 
3 400 453 457 
3 458 457 453 
3 453 454 458 
3 459 458 454 
3 454 455 459 
3 460 459 455 
3 455 456 460 
3 461 400 400 
3 400 457 461 
3 462 461 457 
3 457 458 462 
3 463 462 458 
3 458 459 463 
3 464 463 459 
3 459 460 464 
3 402 400 400 
3 400 461 402 
3 404 402 461 
3 461 462 404 
3 406 404 462 
3 462 463 406 
3 408 406 463 
3 463 464 408 
3 465 407 408 
3 408 466 465 
3 467 465 466 
3 466 468 467 
3 469 467 468 
3 468 470 469 
3 471 469 470 
3 470 472 471 
3 473 412 407 
3 407 465 473 
3 474 473 465 
3 465 467 474 
3 475 474 467 
3 467 469 475 
3 476 475 469 
3 469 471 476 
3 477 416 412 
3 412 473 477 
3 478 477 473 
3 473 474 478 
3 479 478 474 
3 474 475 479 
3 480 479 475 
3 475 476 480 
3 481 420 416 
3 416 477 481 
3 482 481 477 
3 477 478 482 
3 483 482 478 
3 478 479 483 
3 484 483 479 
3 479 480 484 
3 485 424 420 
3 420 481 485 
3 486 485 481 
3 481 482 486 
3 487 486 482 
3 482 483 487 
3 488 487 483 
3 483 484 488 
3 489 428 424 
3 424 485 489 
3 490 489 485 
3 485 486 490 
3 491 490 486 
3 486 487 491 
3 492 491 487 
3 487 488 492 
3 493 432 428 
3 428 489 493 
3 494 493 489 
3 489 490 494 
3 495 494 490 
3 490 491 495 
3 496 495 491 
3 491 492 496 
3 497 436 432 
3 432 493 497 
3 498 497 493 
3 493 494 498 
3 499 498 494 
3 494 495 499 
3 500 499 495 
3 495 496 500 
3 501 440 436 
3 436 497 501 
3 502 501 497 
3 497 498 502 
3 503 502 498 
3 498 499 503 
3 504 503 499 
3 499 500 504 
3 505 444 440 
3 440 501 505 
3 506 505 501 
3 501 502 506 
3 507 506 502 
3 502 503 507 
3 508 507 503 
3 503 504 508 
3 509 448 444 
3 444 505 509 
3 510 509 505 
3 505 506 510 
3 511 510 506 
3 506 507 511 
3 512 511 507 
3 507 508 512 
3 513 452 448 
3 448 509 513 
3 514 513 509 
3 509 510 514 
3 515 514 510 
3 510 511 515 
3 516 515 511 
3 511 512 516 
3 517 456 452 
3 452 513 517 
3 518 517 513 
3 513 514 518 
3 519 518 514 
3 514 515 519 
3 520 519 515 
3 515 516 520 
3 521 460 456 
3 456 517 521 
3 522 521 517 
3 517 518 522 
3 523 522 518 
3 518 519 523 
3 524 523 519 
3 519 520 524 
3 525 464 460 
3 460 521 525 
3 526 525 521 
3 521 522 526 
3 527 526 522 
3 522 523 527 
3 528 527 523 
3 523 524 528 
3 466 408 464 
3 464 525 466 
3 468 466 525 
3 525 526 468 
3 470 468 526 
3 526 527 470 
3 472 470 527 
3 527 528 472 
